<svg xmlns="http://www.w3.org/2000/svg" width="200" height="200" viewBox="0 0 200 200"><defs><clipPath id="sr"><polygon points="100.0,10.0 76.5,73.6 8.7,76.3 62.0,118.4 43.6,183.7 100.0,146.0 156.4,183.7 138.0,118.4 191.3,76.3 123.5,73.6"/></clipPath></defs><g clip-path="url(#sr)"><polygon points="100.0,10.0 76.5,73.6 8.7,76.3 62.0,118.4 43.6,183.7 100.0,146.0 156.4,183.7 138.0,118.4 191.3,76.3 123.5,73.6" fill="#a3121f"/><circle cx="134" cy="161" r="2.0" fill="#ff8a8a" opacity=".7"/><circle cx="99" cy="74" r="3.1" fill="#ff8a8a" opacity=".7"/><circle cx="164" cy="49" r="3.5" fill="#ff8a8a" opacity=".7"/><circle cx="63" cy="138" r="1.7" fill="#ff8a8a" opacity=".7"/><circle cx="161" cy="42" r="3.9" fill="#ff8a8a" opacity=".7"/><circle cx="163" cy="49" r="3.6" fill="#ff8a8a" opacity=".7"/><circle cx="68" cy="122" r="2.4" fill="#ff8a8a" opacity=".7"/><circle cx="133" cy="158" r="3.0" fill="#ff8a8a" opacity=".7"/><circle cx="136" cy="105" r="1.6" fill="#ff8a8a" opacity=".7"/><circle cx="37" cy="118" r="1.7" fill="#ff8a8a" opacity=".7"/><circle cx="52" cy="161" r="3.5" fill="#ff8a8a" opacity=".7"/><circle cx="54" cy="132" r="2.1" fill="#ff8a8a" opacity=".7"/><circle cx="153" cy="79" r="1.7" fill="#ff8a8a" opacity=".7"/><circle cx="78" cy="83" r="3.9" fill="#ff8a8a" opacity=".7"/><circle cx="108" cy="82" r="3.3" fill="#ff8a8a" opacity=".7"/><circle cx="92" cy="110" r="3.3" fill="#ff8a8a" opacity=".7"/><circle cx="127" cy="123" r="2.2" fill="#ff8a8a" opacity=".7"/><circle cx="67" cy="62" r="3.3" fill="#ff8a8a" opacity=".7"/><circle cx="42" cy="34" r="2.0" fill="#ff8a8a" opacity=".7"/><circle cx="168" cy="96" r="3.3" fill="#ff8a8a" opacity=".7"/><circle cx="78" cy="134" r="2.1" fill="#ff8a8a" opacity=".7"/><circle cx="150" cy="95" r="1.6" fill="#ff8a8a" opacity=".7"/><circle cx="79" cy="64" r="4.0" fill="#ff8a8a" opacity=".7"/><circle cx="63" cy="130" r="1.8" fill="#ff8a8a" opacity=".7"/><circle cx="133" cy="69" r="3.6" fill="#ff8a8a" opacity=".7"/><circle cx="31" cy="156" r="3.3" fill="#ff8a8a" opacity=".7"/><circle cx="83" cy="166" r="3.8" fill="#ff8a8a" opacity=".7"/><circle cx="144" cy="150" r="2.5" fill="#ff8a8a" opacity=".7"/><circle cx="114" cy="161" r="3.3" fill="#ff8a8a" opacity=".7"/><circle cx="147" cy="130" r="3.7" fill="#ff8a8a" opacity=".7"/><circle cx="92" cy="76" r="1.6" fill="#ff8a8a" opacity=".7"/><circle cx="76" cy="48" r="2.3" fill="#ff8a8a" opacity=".7"/><circle cx="145" cy="155" r="4.0" fill="#ff8a8a" opacity=".7"/><circle cx="55" cy="129" r="3.3" fill="#ff8a8a" opacity=".7"/><circle cx="61" cy="109" r="3.5" fill="#ff8a8a" opacity=".7"/><circle cx="42" cy="107" r="2.4" fill="#ff8a8a" opacity=".7"/><circle cx="127" cy="83" r="2.5" fill="#ff8a8a" opacity=".7"/><circle cx="141" cy="49" r="1.8" fill="#ff8a8a" opacity=".7"/><circle cx="69" cy="126" r="3.2" fill="#ff8a8a" opacity=".7"/><circle cx="44" cy="63" r="3.5" fill="#ff8a8a" opacity=".7"/><circle cx="164" cy="129" r="2.1" fill="#ff8a8a" opacity=".7"/><circle cx="159" cy="165" r="1.6" fill="#ff8a8a" opacity=".7"/><circle cx="132" cy="113" r="3.1" fill="#ff8a8a" opacity=".7"/><circle cx="125" cy="52" r="2.4" fill="#ff8a8a" opacity=".7"/><circle cx="104" cy="153" r="3.3" fill="#ff8a8a" opacity=".7"/><circle cx="34" cy="64" r="2.6" fill="#ff8a8a" opacity=".7"/><circle cx="57" cy="71" r="3.2" fill="#ff8a8a" opacity=".7"/><circle cx="137" cy="157" r="2.6" fill="#ff8a8a" opacity=".7"/><circle cx="96" cy="92" r="3.2" fill="#ff8a8a" opacity=".7"/><circle cx="40" cy="168" r="2.8" fill="#ff8a8a" opacity=".7"/><circle cx="41" cy="138" r="2.5" fill="#ff8a8a" opacity=".7"/><circle cx="168" cy="163" r="2.1" fill="#ff8a8a" opacity=".7"/><circle cx="60" cy="148" r="2.5" fill="#ff8a8a" opacity=".7"/><circle cx="52" cy="149" r="3.1" fill="#ff8a8a" opacity=".7"/><circle cx="131" cy="37" r="3.9" fill="#ff8a8a" opacity=".7"/><circle cx="68" cy="163" r="2.7" fill="#ff8a8a" opacity=".7"/><circle cx="49" cy="116" r="1.6" fill="#ff8a8a" opacity=".7"/><circle cx="149" cy="53" r="2.7" fill="#ff8a8a" opacity=".7"/><circle cx="68" cy="83" r="1.6" fill="#ff8a8a" opacity=".7"/><circle cx="109" cy="123" r="1.5" fill="#ff8a8a" opacity=".7"/></g></svg>
